<mxfile host="Electron" modified="2024-12-18T06:26:30.205Z" agent="Mozilla/5.0 (Windows NT 10.0; Win64; x64) AppleWebKit/537.36 (KHTML, like Gecko) draw.io/22.0.3 Chrome/114.0.5735.289 Electron/25.8.4 Safari/537.36" etag="O_vkqL-zlyYq_zbChbap" version="22.0.3" type="device">
  <diagram name="Страница — 1" id="jhIJNXe8UuhuYOwzZZic">
    <mxGraphModel dx="1182" dy="690" grid="1" gridSize="10" guides="1" tooltips="1" connect="1" arrows="1" fold="1" page="1" pageScale="1" pageWidth="827" pageHeight="1169" math="0" shadow="0">
      <root>
        <mxCell id="0" />
        <mxCell id="1" parent="0" />
        <mxCell id="yXUBlCIEVRz4-Cy7XNlg-1" value="MainWindow" style="swimlane;fontStyle=0;childLayout=stackLayout;horizontal=1;startSize=26;fillColor=none;horizontalStack=0;resizeParent=1;resizeParentMax=0;resizeLast=0;collapsible=1;marginBottom=0;whiteSpace=wrap;html=1;" parent="1" vertex="1">
          <mxGeometry x="319" y="20" width="190" height="260" as="geometry">
            <mxRectangle x="330" y="210" width="70" height="30" as="alternateBounds" />
          </mxGeometry>
        </mxCell>
        <mxCell id="yXUBlCIEVRz4-Cy7XNlg-2" value="- timer: DispatherTimer" style="text;strokeColor=none;fillColor=none;align=left;verticalAlign=top;spacingLeft=4;spacingRight=4;overflow=hidden;rotatable=0;points=[[0,0.5],[1,0.5]];portConstraint=eastwest;whiteSpace=wrap;html=1;" parent="yXUBlCIEVRz4-Cy7XNlg-1" vertex="1">
          <mxGeometry y="26" width="190" height="26" as="geometry" />
        </mxCell>
        <mxCell id="yXUBlCIEVRz4-Cy7XNlg-3" value="- graphManager: GraphManager" style="text;strokeColor=none;fillColor=none;align=left;verticalAlign=top;spacingLeft=4;spacingRight=4;overflow=hidden;rotatable=0;points=[[0,0.5],[1,0.5]];portConstraint=eastwest;whiteSpace=wrap;html=1;" parent="yXUBlCIEVRz4-Cy7XNlg-1" vertex="1">
          <mxGeometry y="52" width="190" height="26" as="geometry" />
        </mxCell>
        <mxCell id="yXUBlCIEVRz4-Cy7XNlg-4" value="+ ExitButton_Click: void" style="text;strokeColor=none;fillColor=none;align=left;verticalAlign=top;spacingLeft=4;spacingRight=4;overflow=hidden;rotatable=0;points=[[0,0.5],[1,0.5]];portConstraint=eastwest;whiteSpace=wrap;html=1;" parent="yXUBlCIEVRz4-Cy7XNlg-1" vertex="1">
          <mxGeometry y="78" width="190" height="26" as="geometry" />
        </mxCell>
        <mxCell id="yXUBlCIEVRz4-Cy7XNlg-5" value="" style="endArrow=none;html=1;rounded=0;exitX=-0.004;exitY=0.034;exitDx=0;exitDy=0;exitPerimeter=0;entryX=1.001;entryY=0.038;entryDx=0;entryDy=0;entryPerimeter=0;" parent="yXUBlCIEVRz4-Cy7XNlg-1" source="yXUBlCIEVRz4-Cy7XNlg-4" target="yXUBlCIEVRz4-Cy7XNlg-4" edge="1">
          <mxGeometry width="50" height="50" relative="1" as="geometry">
            <mxPoint x="190" y="110" as="sourcePoint" />
            <mxPoint x="240" y="60" as="targetPoint" />
          </mxGeometry>
        </mxCell>
        <mxCell id="yXUBlCIEVRz4-Cy7XNlg-6" value="+ BuildButton_Click: void" style="text;strokeColor=none;fillColor=none;align=left;verticalAlign=top;spacingLeft=4;spacingRight=4;overflow=hidden;rotatable=0;points=[[0,0.5],[1,0.5]];portConstraint=eastwest;whiteSpace=wrap;html=1;" parent="yXUBlCIEVRz4-Cy7XNlg-1" vertex="1">
          <mxGeometry y="104" width="190" height="26" as="geometry" />
        </mxCell>
        <mxCell id="yXUBlCIEVRz4-Cy7XNlg-7" value="+ StopButton_Click: void" style="text;strokeColor=none;fillColor=none;align=left;verticalAlign=top;spacingLeft=4;spacingRight=4;overflow=hidden;rotatable=0;points=[[0,0.5],[1,0.5]];portConstraint=eastwest;whiteSpace=wrap;html=1;" parent="yXUBlCIEVRz4-Cy7XNlg-1" vertex="1">
          <mxGeometry y="130" width="190" height="26" as="geometry" />
        </mxCell>
        <mxCell id="yXUBlCIEVRz4-Cy7XNlg-8" value="+ ContinueButton_Click: void" style="text;strokeColor=none;fillColor=none;align=left;verticalAlign=top;spacingLeft=4;spacingRight=4;overflow=hidden;rotatable=0;points=[[0,0.5],[1,0.5]];portConstraint=eastwest;whiteSpace=wrap;html=1;" parent="yXUBlCIEVRz4-Cy7XNlg-1" vertex="1">
          <mxGeometry y="156" width="190" height="26" as="geometry" />
        </mxCell>
        <mxCell id="yXUBlCIEVRz4-Cy7XNlg-9" value="+ ClearButton_Click: void" style="text;strokeColor=none;fillColor=none;align=left;verticalAlign=top;spacingLeft=4;spacingRight=4;overflow=hidden;rotatable=0;points=[[0,0.5],[1,0.5]];portConstraint=eastwest;whiteSpace=wrap;html=1;" parent="yXUBlCIEVRz4-Cy7XNlg-1" vertex="1">
          <mxGeometry y="182" width="190" height="26" as="geometry" />
        </mxCell>
        <mxCell id="yXUBlCIEVRz4-Cy7XNlg-10" value="+ MetricsButton_Click: void" style="text;strokeColor=none;fillColor=none;align=left;verticalAlign=top;spacingLeft=4;spacingRight=4;overflow=hidden;rotatable=0;points=[[0,0.5],[1,0.5]];portConstraint=eastwest;whiteSpace=wrap;html=1;" parent="yXUBlCIEVRz4-Cy7XNlg-1" vertex="1">
          <mxGeometry y="208" width="190" height="26" as="geometry" />
        </mxCell>
        <mxCell id="yXUBlCIEVRz4-Cy7XNlg-11" value="+ AboutButton_Click: void" style="text;strokeColor=none;fillColor=none;align=left;verticalAlign=top;spacingLeft=4;spacingRight=4;overflow=hidden;rotatable=0;points=[[0,0.5],[1,0.5]];portConstraint=eastwest;whiteSpace=wrap;html=1;" parent="yXUBlCIEVRz4-Cy7XNlg-1" vertex="1">
          <mxGeometry y="234" width="190" height="26" as="geometry" />
        </mxCell>
        <mxCell id="yXUBlCIEVRz4-Cy7XNlg-12" value="GraphManager" style="swimlane;fontStyle=0;childLayout=stackLayout;horizontal=1;startSize=26;fillColor=none;horizontalStack=0;resizeParent=1;resizeParentMax=0;resizeLast=0;collapsible=1;marginBottom=0;whiteSpace=wrap;html=1;" parent="1" vertex="1">
          <mxGeometry x="309" y="350" width="210" height="312" as="geometry">
            <mxRectangle x="330" y="210" width="70" height="30" as="alternateBounds" />
          </mxGeometry>
        </mxCell>
        <mxCell id="yXUBlCIEVRz4-Cy7XNlg-13" value="- CanvasWidth: int" style="text;strokeColor=none;fillColor=none;align=left;verticalAlign=top;spacingLeft=4;spacingRight=4;overflow=hidden;rotatable=0;points=[[0,0.5],[1,0.5]];portConstraint=eastwest;whiteSpace=wrap;html=1;" parent="yXUBlCIEVRz4-Cy7XNlg-12" vertex="1">
          <mxGeometry y="26" width="210" height="26" as="geometry" />
        </mxCell>
        <mxCell id="yXUBlCIEVRz4-Cy7XNlg-14" value="- CanvasHeight: int" style="text;strokeColor=none;fillColor=none;align=left;verticalAlign=top;spacingLeft=4;spacingRight=4;overflow=hidden;rotatable=0;points=[[0,0.5],[1,0.5]];portConstraint=eastwest;whiteSpace=wrap;html=1;" parent="yXUBlCIEVRz4-Cy7XNlg-12" vertex="1">
          <mxGeometry y="52" width="210" height="26" as="geometry" />
        </mxCell>
        <mxCell id="yXUBlCIEVRz4-Cy7XNlg-15" value="- MaxPoints: int" style="text;strokeColor=none;fillColor=none;align=left;verticalAlign=top;spacingLeft=4;spacingRight=4;overflow=hidden;rotatable=0;points=[[0,0.5],[1,0.5]];portConstraint=eastwest;whiteSpace=wrap;html=1;" parent="yXUBlCIEVRz4-Cy7XNlg-12" vertex="1">
          <mxGeometry y="78" width="210" height="26" as="geometry" />
        </mxCell>
        <mxCell id="yXUBlCIEVRz4-Cy7XNlg-16" value="- _canvas: Canvas" style="text;strokeColor=none;fillColor=none;align=left;verticalAlign=top;spacingLeft=4;spacingRight=4;overflow=hidden;rotatable=0;points=[[0,0.5],[1,0.5]];portConstraint=eastwest;whiteSpace=wrap;html=1;" parent="yXUBlCIEVRz4-Cy7XNlg-12" vertex="1">
          <mxGeometry y="104" width="210" height="26" as="geometry" />
        </mxCell>
        <mxCell id="yXUBlCIEVRz4-Cy7XNlg-17" value="- _windData: List&amp;lt;double&amp;gt;" style="text;strokeColor=none;fillColor=none;align=left;verticalAlign=top;spacingLeft=4;spacingRight=4;overflow=hidden;rotatable=0;points=[[0,0.5],[1,0.5]];portConstraint=eastwest;whiteSpace=wrap;html=1;" parent="yXUBlCIEVRz4-Cy7XNlg-12" vertex="1">
          <mxGeometry y="130" width="210" height="26" as="geometry" />
        </mxCell>
        <mxCell id="yXUBlCIEVRz4-Cy7XNlg-18" value="- _random: Random" style="text;strokeColor=none;fillColor=none;align=left;verticalAlign=top;spacingLeft=4;spacingRight=4;overflow=hidden;rotatable=0;points=[[0,0.5],[1,0.5]];portConstraint=eastwest;whiteSpace=wrap;html=1;" parent="yXUBlCIEVRz4-Cy7XNlg-12" vertex="1">
          <mxGeometry y="156" width="210" height="26" as="geometry" />
        </mxCell>
        <mxCell id="yXUBlCIEVRz4-Cy7XNlg-19" value="+ GraphManager(canvas: Canvas)" style="text;strokeColor=none;fillColor=none;align=left;verticalAlign=top;spacingLeft=4;spacingRight=4;overflow=hidden;rotatable=0;points=[[0,0.5],[1,0.5]];portConstraint=eastwest;whiteSpace=wrap;html=1;" parent="yXUBlCIEVRz4-Cy7XNlg-12" vertex="1">
          <mxGeometry y="182" width="210" height="26" as="geometry" />
        </mxCell>
        <mxCell id="yXUBlCIEVRz4-Cy7XNlg-20" value="" style="endArrow=none;html=1;rounded=0;exitX=-0.004;exitY=0.034;exitDx=0;exitDy=0;exitPerimeter=0;entryX=1.001;entryY=0.038;entryDx=0;entryDy=0;entryPerimeter=0;" parent="yXUBlCIEVRz4-Cy7XNlg-12" source="yXUBlCIEVRz4-Cy7XNlg-19" target="yXUBlCIEVRz4-Cy7XNlg-19" edge="1">
          <mxGeometry width="50" height="50" relative="1" as="geometry">
            <mxPoint x="190" y="110" as="sourcePoint" />
            <mxPoint x="240" y="60" as="targetPoint" />
          </mxGeometry>
        </mxCell>
        <mxCell id="yXUBlCIEVRz4-Cy7XNlg-21" value="+ ClearData(): void" style="text;strokeColor=none;fillColor=none;align=left;verticalAlign=top;spacingLeft=4;spacingRight=4;overflow=hidden;rotatable=0;points=[[0,0.5],[1,0.5]];portConstraint=eastwest;whiteSpace=wrap;html=1;" parent="yXUBlCIEVRz4-Cy7XNlg-12" vertex="1">
          <mxGeometry y="208" width="210" height="26" as="geometry" />
        </mxCell>
        <mxCell id="yXUBlCIEVRz4-Cy7XNlg-22" value="+ AddDataPoint(): void" style="text;strokeColor=none;fillColor=none;align=left;verticalAlign=top;spacingLeft=4;spacingRight=4;overflow=hidden;rotatable=0;points=[[0,0.5],[1,0.5]];portConstraint=eastwest;whiteSpace=wrap;html=1;" parent="yXUBlCIEVRz4-Cy7XNlg-12" vertex="1">
          <mxGeometry y="234" width="210" height="26" as="geometry" />
        </mxCell>
        <mxCell id="yXUBlCIEVRz4-Cy7XNlg-23" value="+ DrawAxis(): void" style="text;strokeColor=none;fillColor=none;align=left;verticalAlign=top;spacingLeft=4;spacingRight=4;overflow=hidden;rotatable=0;points=[[0,0.5],[1,0.5]];portConstraint=eastwest;whiteSpace=wrap;html=1;" parent="yXUBlCIEVRz4-Cy7XNlg-12" vertex="1">
          <mxGeometry y="260" width="210" height="26" as="geometry" />
        </mxCell>
        <mxCell id="yXUBlCIEVRz4-Cy7XNlg-24" value="+ DrawDataPoints(): void" style="text;strokeColor=none;fillColor=none;align=left;verticalAlign=top;spacingLeft=4;spacingRight=4;overflow=hidden;rotatable=0;points=[[0,0.5],[1,0.5]];portConstraint=eastwest;whiteSpace=wrap;html=1;" parent="yXUBlCIEVRz4-Cy7XNlg-12" vertex="1">
          <mxGeometry y="286" width="210" height="26" as="geometry" />
        </mxCell>
        <mxCell id="yXUBlCIEVRz4-Cy7XNlg-27" value="Canvas" style="swimlane;fontStyle=0;childLayout=stackLayout;horizontal=1;startSize=26;fillColor=none;horizontalStack=0;resizeParent=1;resizeParentMax=0;resizeLast=0;collapsible=1;marginBottom=0;whiteSpace=wrap;html=1;" parent="1" vertex="1">
          <mxGeometry x="344" y="710" width="140" height="156" as="geometry">
            <mxRectangle x="330" y="210" width="70" height="30" as="alternateBounds" />
          </mxGeometry>
        </mxCell>
        <mxCell id="yXUBlCIEVRz4-Cy7XNlg-28" value="+ Children: UI" style="text;strokeColor=none;fillColor=none;align=left;verticalAlign=top;spacingLeft=4;spacingRight=4;overflow=hidden;rotatable=0;points=[[0,0.5],[1,0.5]];portConstraint=eastwest;whiteSpace=wrap;html=1;" parent="yXUBlCIEVRz4-Cy7XNlg-27" vertex="1">
          <mxGeometry y="26" width="140" height="26" as="geometry" />
        </mxCell>
        <mxCell id="yXUBlCIEVRz4-Cy7XNlg-29" value="+ ActualWidth: double" style="text;strokeColor=none;fillColor=none;align=left;verticalAlign=top;spacingLeft=4;spacingRight=4;overflow=hidden;rotatable=0;points=[[0,0.5],[1,0.5]];portConstraint=eastwest;whiteSpace=wrap;html=1;" parent="yXUBlCIEVRz4-Cy7XNlg-27" vertex="1">
          <mxGeometry y="52" width="140" height="26" as="geometry" />
        </mxCell>
        <mxCell id="yXUBlCIEVRz4-Cy7XNlg-30" value="+ ActualHeight: double" style="text;strokeColor=none;fillColor=none;align=left;verticalAlign=top;spacingLeft=4;spacingRight=4;overflow=hidden;rotatable=0;points=[[0,0.5],[1,0.5]];portConstraint=eastwest;whiteSpace=wrap;html=1;" parent="yXUBlCIEVRz4-Cy7XNlg-27" vertex="1">
          <mxGeometry y="78" width="140" height="26" as="geometry" />
        </mxCell>
        <mxCell id="yXUBlCIEVRz4-Cy7XNlg-31" value="+ SetLeft: void" style="text;strokeColor=none;fillColor=none;align=left;verticalAlign=top;spacingLeft=4;spacingRight=4;overflow=hidden;rotatable=0;points=[[0,0.5],[1,0.5]];portConstraint=eastwest;whiteSpace=wrap;html=1;" parent="yXUBlCIEVRz4-Cy7XNlg-27" vertex="1">
          <mxGeometry y="104" width="140" height="26" as="geometry" />
        </mxCell>
        <mxCell id="yXUBlCIEVRz4-Cy7XNlg-32" value="+ SetTop: void" style="text;strokeColor=none;fillColor=none;align=left;verticalAlign=top;spacingLeft=4;spacingRight=4;overflow=hidden;rotatable=0;points=[[0,0.5],[1,0.5]];portConstraint=eastwest;whiteSpace=wrap;html=1;" parent="yXUBlCIEVRz4-Cy7XNlg-27" vertex="1">
          <mxGeometry y="130" width="140" height="26" as="geometry" />
        </mxCell>
        <mxCell id="yXUBlCIEVRz4-Cy7XNlg-35" value="UI" style="swimlane;fontStyle=0;childLayout=stackLayout;horizontal=1;startSize=26;fillColor=none;horizontalStack=0;resizeParent=1;resizeParentMax=0;resizeLast=0;collapsible=1;marginBottom=0;whiteSpace=wrap;html=1;" parent="1" vertex="1">
          <mxGeometry x="344" y="940" width="140" height="52" as="geometry">
            <mxRectangle x="330" y="210" width="70" height="30" as="alternateBounds" />
          </mxGeometry>
        </mxCell>
        <mxCell id="yXUBlCIEVRz4-Cy7XNlg-36" value="WPF" style="text;strokeColor=none;fillColor=none;align=left;verticalAlign=top;spacingLeft=4;spacingRight=4;overflow=hidden;rotatable=0;points=[[0,0.5],[1,0.5]];portConstraint=eastwest;whiteSpace=wrap;html=1;" parent="yXUBlCIEVRz4-Cy7XNlg-35" vertex="1">
          <mxGeometry y="26" width="140" height="26" as="geometry" />
        </mxCell>
        <mxCell id="3k_AEEcK6Yz-NEnRhVel-1" value="" style="endArrow=classic;html=1;rounded=0;exitX=0.496;exitY=0.995;exitDx=0;exitDy=0;exitPerimeter=0;entryX=0.5;entryY=0;entryDx=0;entryDy=0;" edge="1" parent="1" source="yXUBlCIEVRz4-Cy7XNlg-11" target="yXUBlCIEVRz4-Cy7XNlg-12">
          <mxGeometry width="50" height="50" relative="1" as="geometry">
            <mxPoint x="590" y="290" as="sourcePoint" />
            <mxPoint x="640" y="240" as="targetPoint" />
          </mxGeometry>
        </mxCell>
        <mxCell id="3k_AEEcK6Yz-NEnRhVel-2" value="" style="endArrow=classic;html=1;rounded=0;exitX=0.501;exitY=1.028;exitDx=0;exitDy=0;exitPerimeter=0;entryX=0.5;entryY=0;entryDx=0;entryDy=0;" edge="1" parent="1" source="yXUBlCIEVRz4-Cy7XNlg-24" target="yXUBlCIEVRz4-Cy7XNlg-27">
          <mxGeometry width="50" height="50" relative="1" as="geometry">
            <mxPoint x="420" y="720" as="sourcePoint" />
            <mxPoint x="470" y="670" as="targetPoint" />
          </mxGeometry>
        </mxCell>
        <mxCell id="3k_AEEcK6Yz-NEnRhVel-3" value="" style="endArrow=classic;html=1;rounded=0;exitX=0.497;exitY=1.03;exitDx=0;exitDy=0;exitPerimeter=0;entryX=0.5;entryY=0;entryDx=0;entryDy=0;" edge="1" parent="1" source="yXUBlCIEVRz4-Cy7XNlg-32" target="yXUBlCIEVRz4-Cy7XNlg-35">
          <mxGeometry width="50" height="50" relative="1" as="geometry">
            <mxPoint x="430" y="930" as="sourcePoint" />
            <mxPoint x="480" y="880" as="targetPoint" />
          </mxGeometry>
        </mxCell>
      </root>
    </mxGraphModel>
  </diagram>
</mxfile>
